<?xml version="1.0" encoding="UTF-8" standalone="no"?>
<!DOCTYPE svg PUBLIC "-//W3C//DTD SVG 1.1//EN" "http://www.w3.org/Graphics/SVG/1.1/DTD/svg11.dtd">
<svg width="100%" height="100%" viewBox="0 0 800 800" version="1.1" xmlns="http://www.w3.org/2000/svg" xmlns:xlink="http://www.w3.org/1999/xlink" xml:space="preserve" xmlns:serif="http://www.serif.com/" style="fill-rule:evenodd;clip-rule:evenodd;stroke-linejoin:round;stroke-miterlimit:2;">
    <g id="Layer-1" serif:id="Layer 1">
        <g transform="matrix(1,0,0,1,481.824,427.939)">
            <path d="M0,339.477L3.941,338.444C29.171,331.832 46.14,313.178 41.842,296.778L-31.007,18.776C-35.49,1.667 -60.459,-6.61 -86.776,0.287C-113.094,7.183 -130.795,26.642 -126.312,43.749L-53.464,321.752C-49.166,338.152 -25.229,346.087 0,339.477" style="fill:rgb(252,206,91);fill-rule:nonzero;"/>
        </g>
        <g transform="matrix(1,0,0,1,502.465,453.267)">
            <path d="M0,280.773L-54.472,72.9L-127.652,92.077L-146.953,18.421C-151.436,1.314 -133.735,-18.145 -107.417,-25.041C-81.1,-31.938 -56.131,-23.661 -51.647,-6.552L21.201,271.45C25.416,287.534 9.171,305.778 -15.256,312.711C-3.409,304.384 2.984,292.162 0,280.773" style="fill:rgb(247,185,47);fill-rule:nonzero;"/>
        </g>
        <g transform="matrix(1,0,0,1,546.887,76.7193)">
            <path d="M0,399.017L-233.635,460.24C-247.858,463.967 -262.41,455.458 -266.137,441.235L-364.623,65.396C-373.743,30.591 -352.921,-5.018 -318.116,-14.139L-159.017,-55.83C-124.211,-64.95 -88.602,-44.129 -79.481,-9.323L19.005,366.516C22.731,380.739 14.223,395.29 0,399.017" style="fill:rgb(82,0,188);fill-rule:nonzero;"/>
        </g>
        <g transform="matrix(1,0,0,1,520.56,94.3017)">
            <path d="M0,388.334L-235.441,450.029C-249.166,453.626 -263.207,445.416 -266.803,431.691L-363.086,64.258C-372.076,29.951 -351.553,-5.148 -317.246,-14.138L-156.341,-56.302C-122.034,-65.292 -86.935,-44.769 -77.945,-10.462L18.338,356.972C21.935,370.696 13.725,384.737 0,388.334" style="fill:rgb(128,13,249);fill-rule:nonzero;"/>
        </g>
        <g transform="matrix(0.103687,-0.99461,-0.99461,-0.103687,284.564,419.082)">
            <path d="M-3.036,-2.737C-7.94,-2.737 -11.916,-1.371 -11.917,0.315C-11.917,2.001 -7.941,3.368 -3.036,3.368C1.868,3.369 5.844,2.002 5.843,0.316C5.844,-1.37 1.868,-2.736 -3.036,-2.737" style="fill:rgb(201,159,93);fill-rule:nonzero;"/>
        </g>
        <g transform="matrix(1,0,0,1,283.718,414.269)">
            <path d="M0,15.6C-1.436,15.451 -2.208,11.564 -1.725,6.919C-1.374,3.55 -0.458,0.717 0.566,-0.534C-0.66,0.26 -1.843,3.471 -2.254,7.412C-2.738,12.057 -1.966,15.944 -0.529,16.093C-0.135,16.134 0.269,15.881 0.656,15.408C0.437,15.549 0.217,15.622 0,15.6" style="fill:rgb(255,215,143);fill-rule:nonzero;"/>
        </g>
        <g transform="matrix(0.103508,-0.994629,-0.994629,-0.103508,244.621,290.008)">
            <path d="M-3.037,-2.736C-7.941,-2.736 -11.917,-1.368 -11.918,0.318C-11.917,2.003 -7.941,3.37 -3.037,3.369C1.868,3.368 5.844,2.001 5.844,0.315C5.843,-1.371 1.867,-2.737 -3.037,-2.736" style="fill:rgb(201,159,93);fill-rule:nonzero;"/>
        </g>
        <g transform="matrix(1,0,0,1,243.775,285.195)">
            <path d="M0,15.6C-1.437,15.45 -2.208,11.564 -1.725,6.919C-1.374,3.55 -0.458,0.717 0.566,-0.534C-0.66,0.26 -1.844,3.471 -2.254,7.412C-2.738,12.057 -1.966,15.944 -0.53,16.093C-0.135,16.134 0.268,15.881 0.656,15.407C0.437,15.549 0.217,15.622 0,15.6" style="fill:rgb(255,215,143);fill-rule:nonzero;"/>
        </g>
        <g transform="matrix(0.10367,-0.994612,-0.994612,-0.10367,334.386,380.322)">
            <path d="M-3.037,-2.736C-7.941,-2.737 -11.917,-1.371 -11.917,0.316C-11.917,2.001 -7.942,3.369 -3.037,3.369C1.868,3.369 5.844,2.003 5.844,0.317C5.845,-1.369 1.868,-2.736 -3.037,-2.736" style="fill:rgb(201,159,93);fill-rule:nonzero;"/>
        </g>
        <g transform="matrix(1,0,0,1,333.54,375.511)">
            <path d="M0,15.598C-1.437,15.449 -2.208,11.562 -1.725,6.917C-1.374,3.549 -0.458,0.715 0.566,-0.535C-0.66,0.258 -1.844,3.469 -2.254,7.41C-2.738,12.056 -1.966,15.942 -0.529,16.091C-0.135,16.133 0.268,15.879 0.656,15.405C0.437,15.547 0.217,15.621 0,15.598" style="fill:rgb(255,215,143);fill-rule:nonzero;"/>
        </g>
        <g transform="matrix(0.10367,-0.994612,-0.994612,-0.10367,349.752,266.132)">
            <path d="M-3.037,-2.736C-7.941,-2.737 -11.917,-1.371 -11.917,0.316C-11.917,2.001 -7.942,3.369 -3.037,3.369C1.868,3.369 5.844,2.003 5.844,0.317C5.845,-1.369 1.868,-2.736 -3.037,-2.736" style="fill:rgb(201,159,93);fill-rule:nonzero;"/>
        </g>
        <g transform="matrix(1,0,0,1,348.906,261.32)">
            <path d="M0,15.598C-1.437,15.449 -2.208,11.562 -1.725,6.917C-1.374,3.549 -0.458,0.715 0.566,-0.535C-0.66,0.258 -1.844,3.469 -2.254,7.41C-2.738,12.056 -1.966,15.942 -0.529,16.091C-0.135,16.133 0.268,15.879 0.656,15.405C0.437,15.547 0.217,15.621 0,15.598" style="fill:rgb(255,215,143);fill-rule:nonzero;"/>
        </g>
        <g transform="matrix(0.10367,-0.994612,-0.994612,-0.10367,367.127,75.5243)">
            <path d="M-3.037,-2.736C-7.941,-2.737 -11.917,-1.37 -11.918,0.316C-11.918,2.001 -7.942,3.369 -3.037,3.369C1.868,3.369 5.844,2.003 5.844,0.317C5.844,-1.369 1.868,-2.736 -3.037,-2.736" style="fill:rgb(201,159,93);fill-rule:nonzero;"/>
        </g>
        <g transform="matrix(1,0,0,1,366.281,70.7115)">
            <path d="M0,15.6C-1.437,15.45 -2.208,11.564 -1.725,6.919C-1.374,3.55 -0.458,0.717 0.566,-0.534C-0.66,0.26 -1.844,3.471 -2.254,7.412C-2.738,12.057 -1.966,15.943 -0.529,16.093C-0.135,16.134 0.268,15.881 0.656,15.407C0.437,15.549 0.217,15.622 0,15.6" style="fill:rgb(255,215,143);fill-rule:nonzero;"/>
        </g>
        <g transform="matrix(0.10367,-0.994612,-0.994612,-0.10367,375.668,322.991)">
            <path d="M-3.037,-2.736C-7.941,-2.737 -11.917,-1.37 -11.918,0.316C-11.918,2.001 -7.942,3.369 -3.037,3.369C1.868,3.369 5.844,2.003 5.844,0.317C5.844,-1.369 1.868,-2.736 -3.037,-2.736" style="fill:rgb(201,159,93);fill-rule:nonzero;"/>
        </g>
        <g transform="matrix(1,0,0,1,374.822,318.178)">
            <path d="M0,15.6C-1.437,15.45 -2.208,11.564 -1.725,6.919C-1.374,3.55 -0.458,0.717 0.566,-0.534C-0.66,0.26 -1.844,3.471 -2.254,7.412C-2.738,12.057 -1.966,15.943 -0.529,16.093C-0.135,16.134 0.268,15.881 0.656,15.407C0.437,15.549 0.217,15.622 0,15.6" style="fill:rgb(255,215,143);fill-rule:nonzero;"/>
        </g>
        <g transform="matrix(0.103687,-0.99461,-0.99461,-0.103687,384.487,188.483)">
            <path d="M-3.036,-2.736C-7.941,-2.737 -11.917,-1.371 -11.917,0.315C-11.918,2.001 -7.942,3.369 -3.036,3.368C1.868,3.369 5.844,2.003 5.844,0.317C5.844,-1.369 1.868,-2.736 -3.036,-2.736" style="fill:rgb(201,159,93);fill-rule:nonzero;"/>
        </g>
        <g transform="matrix(1,0,0,1,383.641,183.672)">
            <path d="M0,15.598C-1.437,15.449 -2.209,11.562 -1.725,6.917C-1.374,3.549 -0.458,0.715 0.566,-0.535C-0.66,0.258 -1.844,3.469 -2.254,7.411C-2.738,12.056 -1.966,15.942 -0.53,16.092C-0.135,16.133 0.268,15.879 0.656,15.406C0.437,15.547 0.217,15.621 0,15.598" style="fill:rgb(255,215,143);fill-rule:nonzero;"/>
        </g>
        <g transform="matrix(0.103687,-0.99461,-0.99461,-0.103687,290.823,312.175)">
            <path d="M-3.036,-2.736C-7.941,-2.737 -11.917,-1.371 -11.917,0.316C-11.917,2.001 -7.942,3.369 -3.036,3.368C1.868,3.369 5.844,2.003 5.844,0.317C5.845,-1.369 1.868,-2.736 -3.036,-2.736" style="fill:rgb(201,159,93);fill-rule:nonzero;"/>
        </g>
        <g transform="matrix(1,0,0,1,289.977,307.363)">
            <path d="M0,15.598C-1.437,15.449 -2.208,11.562 -1.725,6.917C-1.374,3.549 -0.458,0.715 0.566,-0.535C-0.66,0.258 -1.843,3.469 -2.254,7.41C-2.738,12.056 -1.966,15.942 -0.529,16.092C-0.135,16.133 0.268,15.879 0.656,15.405C0.437,15.547 0.217,15.621 0,15.598" style="fill:rgb(255,215,143);fill-rule:nonzero;"/>
        </g>
        <g transform="matrix(0.10367,-0.994612,-0.994612,-0.10367,277.12,217.842)">
            <path d="M-3.037,-2.736C-7.941,-2.737 -11.917,-1.37 -11.917,0.316C-11.917,2.001 -7.942,3.369 -3.037,3.369C1.868,3.369 5.844,2.003 5.844,0.317C5.845,-1.369 1.868,-2.736 -3.037,-2.736" style="fill:rgb(201,159,93);fill-rule:nonzero;"/>
        </g>
        <g transform="matrix(1,0,0,1,276.274,213.031)">
            <path d="M0,15.598C-1.437,15.449 -2.208,11.562 -1.725,6.917C-1.374,3.549 -0.458,0.715 0.566,-0.535C-0.66,0.258 -1.844,3.469 -2.254,7.41C-2.738,12.055 -1.966,15.942 -0.529,16.091C-0.135,16.133 0.268,15.879 0.656,15.405C0.437,15.547 0.217,15.621 0,15.598" style="fill:rgb(255,215,143);fill-rule:nonzero;"/>
        </g>
        <g transform="matrix(0.103525,-0.994627,-0.994627,-0.103525,214.575,147.324)">
            <path d="M-3.036,-2.737C-7.941,-2.737 -11.917,-1.37 -11.917,0.316C-11.917,2.002 -7.941,3.369 -3.036,3.368C1.869,3.368 5.844,2.001 5.844,0.315C5.844,-1.371 1.868,-2.737 -3.036,-2.737" style="fill:rgb(201,159,93);fill-rule:nonzero;"/>
        </g>
        <g transform="matrix(1,0,0,1,213.73,142.512)">
            <path d="M0,15.599C-1.436,15.45 -2.208,11.563 -1.725,6.918C-1.374,3.55 -0.458,0.716 0.566,-0.534C-0.66,0.259 -1.843,3.47 -2.254,7.411C-2.738,12.056 -1.966,15.943 -0.529,16.092C-0.135,16.133 0.269,15.88 0.656,15.406C0.437,15.548 0.218,15.621 0,15.599" style="fill:rgb(255,215,143);fill-rule:nonzero;"/>
        </g>
        <g transform="matrix(0.10367,-0.994612,-0.994612,-0.10367,436.367,255.675)">
            <path d="M-3.037,-2.736C-7.941,-2.736 -11.917,-1.37 -11.917,0.316C-11.918,2.002 -7.942,3.369 -3.037,3.369C1.868,3.369 5.844,2.003 5.844,0.317C5.845,-1.369 1.868,-2.736 -3.037,-2.736" style="fill:rgb(201,159,93);fill-rule:nonzero;"/>
        </g>
        <g transform="matrix(1,0,0,1,435.521,250.864)">
            <path d="M0,15.598C-1.437,15.449 -2.209,11.562 -1.725,6.917C-1.374,3.549 -0.458,0.715 0.566,-0.535C-0.66,0.258 -1.844,3.469 -2.254,7.411C-2.738,12.056 -1.966,15.942 -0.529,16.092C-0.135,16.133 0.268,15.879 0.656,15.406C0.437,15.547 0.217,15.621 0,15.598" style="fill:rgb(255,215,143);fill-rule:nonzero;"/>
        </g>
        <g transform="matrix(0.10367,-0.994612,-0.994612,-0.10367,486.816,424.838)">
            <path d="M-3.037,-2.736C-7.941,-2.736 -11.917,-1.37 -11.918,0.316C-11.918,2.002 -7.941,3.369 -3.037,3.369C1.868,3.369 5.844,2.004 5.844,0.317C5.845,-1.369 1.868,-2.736 -3.037,-2.736" style="fill:rgb(201,159,93);fill-rule:nonzero;"/>
        </g>
        <g transform="matrix(1,0,0,1,485.97,420.025)">
            <path d="M0,15.6C-1.437,15.45 -2.209,11.564 -1.726,6.919C-1.374,3.55 -0.458,0.716 0.566,-0.534C-0.66,0.259 -1.844,3.471 -2.255,7.412C-2.738,12.057 -1.966,15.944 -0.53,16.093C-0.135,16.134 0.268,15.88 0.656,15.407C0.437,15.548 0.217,15.622 0,15.6" style="fill:rgb(255,215,143);fill-rule:nonzero;"/>
        </g>
        <g transform="matrix(0.103525,-0.994627,-0.994627,-0.103525,243.213,368.716)">
            <path d="M-3.037,-2.736C-7.941,-2.736 -11.917,-1.369 -11.918,0.318C-11.917,2.003 -7.941,3.37 -3.037,3.368C1.868,3.368 5.844,2.001 5.844,0.315C5.843,-1.371 1.867,-2.737 -3.037,-2.736" style="fill:rgb(201,159,93);fill-rule:nonzero;"/>
        </g>
        <g transform="matrix(1,0,0,1,242.367,363.903)">
            <path d="M0,15.6C-1.436,15.45 -2.208,11.564 -1.725,6.919C-1.374,3.551 -0.458,0.717 0.566,-0.534C-0.66,0.26 -1.843,3.471 -2.254,7.412C-2.738,12.057 -1.966,15.944 -0.529,16.093C-0.135,16.134 0.269,15.881 0.656,15.407C0.437,15.549 0.217,15.622 0,15.6" style="fill:rgb(255,215,143);fill-rule:nonzero;"/>
        </g>
        <g transform="matrix(0.103525,-0.994627,-0.994627,-0.103525,457.346,307.709)">
            <path d="M-3.036,-2.736C-7.94,-2.736 -11.916,-1.369 -11.916,0.317C-11.916,2.003 -7.94,3.369 -3.036,3.369C1.87,3.369 5.845,2.002 5.845,0.316C5.845,-1.37 1.869,-2.737 -3.036,-2.736" style="fill:rgb(201,159,93);fill-rule:nonzero;"/>
        </g>
        <g transform="matrix(1,0,0,1,456.5,302.896)">
            <path d="M0,15.599C-1.437,15.45 -2.208,11.563 -1.725,6.918C-1.374,3.55 -0.458,0.716 0.566,-0.534C-0.66,0.259 -1.844,3.47 -2.254,7.411C-2.737,12.056 -1.966,15.943 -0.529,16.092C-0.135,16.133 0.269,15.88 0.656,15.406C0.437,15.548 0.218,15.621 0,15.599" style="fill:rgb(255,215,143);fill-rule:nonzero;"/>
        </g>
        <g transform="matrix(0.103525,-0.994627,-0.994627,-0.103525,418.14,396.321)">
            <path d="M-3.036,-2.735C-7.94,-2.735 -11.916,-1.368 -11.916,0.318C-11.916,2.004 -7.94,3.37 -3.036,3.369C1.869,3.368 5.845,2.002 5.845,0.316C5.844,-1.371 1.868,-2.737 -3.036,-2.735" style="fill:rgb(201,159,93);fill-rule:nonzero;"/>
        </g>
        <g transform="matrix(1,0,0,1,417.294,391.508)">
            <path d="M0,15.598C-1.436,15.449 -2.208,11.562 -1.725,6.918C-1.373,3.549 -0.458,0.715 0.566,-0.535C-0.66,0.258 -1.843,3.47 -2.254,7.411C-2.737,12.056 -1.965,15.942 -0.529,16.092C-0.135,16.133 0.269,15.879 0.656,15.406C0.437,15.547 0.218,15.621 0,15.598" style="fill:rgb(255,215,143);fill-rule:nonzero;"/>
        </g>
        <g transform="matrix(0.10367,-0.994612,-0.994612,-0.10367,312.621,157.13)">
            <path d="M-3.037,-2.736C-7.941,-2.737 -11.917,-1.37 -11.917,0.316C-11.917,2.001 -7.942,3.369 -3.037,3.369C1.868,3.369 5.844,2.003 5.844,0.317C5.845,-1.369 1.868,-2.736 -3.037,-2.736" style="fill:rgb(201,159,93);fill-rule:nonzero;"/>
        </g>
        <g transform="matrix(1,0,0,1,311.775,152.318)">
            <path d="M0,15.598C-1.437,15.449 -2.208,11.562 -1.725,6.917C-1.374,3.549 -0.458,0.715 0.566,-0.535C-0.66,0.258 -1.844,3.469 -2.254,7.41C-2.738,12.056 -1.966,15.942 -0.53,16.091C-0.135,16.133 0.268,15.879 0.656,15.405C0.437,15.547 0.217,15.621 0,15.598" style="fill:rgb(255,215,143);fill-rule:nonzero;"/>
        </g>
        <g transform="matrix(0.10367,-0.994612,-0.994612,-0.10367,346.477,459.164)">
            <path d="M-3.036,-2.737C-7.94,-2.737 -11.917,-1.37 -11.917,0.316C-11.917,2.001 -7.941,3.368 -3.036,3.369C1.868,3.368 5.844,2.002 5.843,0.316C5.844,-1.37 1.868,-2.736 -3.036,-2.737" style="fill:rgb(201,159,93);fill-rule:nonzero;"/>
        </g>
        <g transform="matrix(1,0,0,1,345.631,454.351)">
            <path d="M0,15.6C-1.437,15.451 -2.208,11.564 -1.725,6.919C-1.374,3.55 -0.458,0.717 0.566,-0.534C-0.66,0.26 -1.844,3.471 -2.254,7.412C-2.738,12.057 -1.966,15.944 -0.529,16.093C-0.135,16.134 0.268,15.881 0.656,15.408C0.437,15.549 0.217,15.622 0,15.6" style="fill:rgb(255,215,143);fill-rule:nonzero;"/>
        </g>
    </g>
</svg>
